ply
format ascii 1.0
comment Put-That-There generated
element vertex 8
property float x
property float y
property float z
property uchar red
property uchar green
property uchar blue
property uchar alpha
element face 12
property list uchar int vertex_indices
end_header
0 0 0 255 0 0 255
1 0 0 255 0 0 255
0 1 0 255 0 0 255
1 1 0 255 0 0 255
0 0 1 0 255 0 255
1 0 1 0 255 0 255
0 1 1 0 255 0 255
1 1 1 0 255 0 255
3 2 3 1
3 2 1 0
3 7 1 3
3 7 5 1
3 6 5 7
3 6 4 5
3 6 2 0
3 6 0 4
3 2 7 3
3 2 6 7
3 0 1 5
3 0 5 4
